<svg xmlns="http://www.w3.org/2000/svg" viewBox="0 0 100 100" fill="none">
  <defs>
    <linearGradient id="lumora" x1="10" y1="10" x2="90" y2="90">
      <stop offset="0%" stop-color="#A78BFA"/>
      <stop offset="100%" stop-color="#7C3AED"/>
    </linearGradient>
  </defs>

  <rect width="100" height="100" rx="26" fill="url(#lumora)"/>

  <!-- Main Lumora Spark -->
  <path
    d="M50 18
       C53 18 54 23 55 28
       C57 36 62 41 72 43
       C77 44 80 47 80 50
       C80 53 77 56 72 57
       C62 59 57 64 55 72
       C54 77 53 82 50 82
       C47 82 46 77 45 72
       C43 64 38 59 28 57
       C23 56 20 53 20 50
       C20 47 23 44 28 43
       C38 41 43 36 45 28
       C46 23 47 18 50 18Z"
    fill="white"
  />

  <!-- Small Spark -->
  <path
    d="M76 16
       C78 16 78 20 79 22
       C79 25 81 27 84 27
       C87 28 88 29 88 31
       C88 33 87 34 84 34
       C81 35 79 37 79 40
       C78 42 78 44 76 44
       C74 44 73 42 73 40
       C72 37 70 35 67 34
       C64 34 63 33 63 31
       C63 29 64 28 67 27
       C70 27 72 25 73 22
       C73 20 74 16 76 16Z"
    fill="white"
    opacity="0.9"
  />
</svg>